<?xml version="1.0" encoding="UTF-8"?>
<svg id="Layer_2" data-name="Layer 2" xmlns="http://www.w3.org/2000/svg" viewBox="0 0 56.07 62.26">
  <defs>
    <style>
      .cls-1 {
        fill: #28ccc0;
      }
    </style>
  </defs>
  <g id="Layer_1-2" data-name="Layer 1">
    <g>
      <path class="cls-1" d="m56.07,18.16c0,7.04-5.64,12.76-12.65,12.87-.07,0-.15,0-.22,0h-8.2v31.22h-13.42v-31.22h-6.9v-10.2h28.74c5.24,0,9.76-2.93,11.85-7.16.52,1.39.8,2.9.8,4.48Z"/>
      <path class="cls-1" d="m54.92,9.56c0,3.38-1.92,6.35-4.8,8.05-1.61.94-3.51,1.5-5.56,1.5-.6,0-1.18-.06-1.76-.15-.04-.01-.08-.01-.12-.02.56-.74.89-1.66.89-2.66,0-.14-.03-.27-.04-.4-.13-1.35-.85-2.53-1.93-3.31-.83-.59-1.86-.95-2.98-.95H13v33.67H0V0h44.47s.03.01.03.01c2.7.11,5.15,1.07,7.12,2.58,2.02,1.74,3.3,4.21,3.3,6.97Z"/>
    </g>
  </g>
</svg>