<svg xmlns="http://www.w3.org/2000/svg" xmlns:xlink="http://www.w3.org/1999/xlink" width="2000" zoomAndPan="magnify" viewBox="0 0 1500 599.999999" height="800" preserveAspectRatio="xMidYMid meet" version="1.0"><defs><g/><clipPath id="0293b11310"><path d="M 15 20 L 294 20 L 294 417 L 15 417 Z M 15 20 " clip-rule="nonzero"/></clipPath><clipPath id="67a25a9980"><path d="M 10.402344 10.628906 L 289.199219 -0.0117188 L 304.902344 411.441406 L 26.105469 422.078125 Z M 10.402344 10.628906 " clip-rule="nonzero"/></clipPath><clipPath id="c439a61af9"><path d="M 10.402344 10.628906 L 289.199219 -0.0117188 L 304.902344 411.441406 L 26.105469 422.078125 Z M 10.402344 10.628906 " clip-rule="nonzero"/></clipPath><clipPath id="24ea67b547"><path d="M 94 112 L 144 112 L 144 198 L 94 198 Z M 94 112 " clip-rule="nonzero"/></clipPath><clipPath id="954cb18c39"><path d="M 90.046875 111.632812 L 144.757812 109.546875 L 148.1875 199.480469 L 93.480469 201.570312 Z M 90.046875 111.632812 " clip-rule="nonzero"/></clipPath><clipPath id="0835e15855"><path d="M 90.046875 111.632812 L 144.757812 109.546875 L 148.1875 199.480469 L 93.480469 201.570312 Z M 90.046875 111.632812 " clip-rule="nonzero"/></clipPath><clipPath id="f97ae4b0f4"><path d="M 11 21 L 281 21 L 281 543 L 11 543 Z M 11 21 " clip-rule="nonzero"/></clipPath><clipPath id="11893e1763"><path d="M 6.921875 18.234375 L 287.964844 7.511719 L 308.15625 536.625 L 27.109375 547.347656 Z M 6.921875 18.234375 " clip-rule="nonzero"/></clipPath><clipPath id="ba0236e3ef"><path d="M 6.921875 18.234375 L 287.964844 7.511719 L 308.15625 536.625 L 27.109375 547.347656 Z M 6.921875 18.234375 " clip-rule="nonzero"/></clipPath></defs><g fill="#2dc6bb" fill-opacity="1"><g transform="translate(187.920021, 479.248782)"><g><path d="M 125.1875 0 L 101.921875 0 C 99.847656 0 98.570312 -1.117188 98.09375 -3.359375 L 90.421875 -33.578125 L 45.328125 -33.578125 L 37.890625 -3.359375 C 37.410156 -1.117188 36.132812 0 34.0625 0 L 10.546875 0 C 7.671875 0 6.632812 -1.359375 7.4375 -4.078125 L 47.25 -164.515625 C 47.726562 -166.753906 49.085938 -167.875 51.328125 -167.875 L 84.65625 -167.875 C 86.894531 -167.875 88.253906 -166.753906 88.734375 -164.515625 L 128.546875 -4.078125 C 129.347656 -1.359375 128.226562 0 125.1875 0 Z M 82.984375 -61.390625 L 67.875 -126.625 L 52.765625 -61.390625 Z M 82.984375 -61.390625 "/></g></g></g><g fill="#2dc6bb" fill-opacity="1"><g transform="translate(315.968299, 479.248782)"><g><path d="M 99.28125 -167.875 L 11.03125 -167.875 C 8.46875 -167.875 7.1875 -166.597656 7.1875 -164.046875 L 7.1875 -140.0625 C 7.1875 -137.5 8.46875 -136.21875 11.03125 -136.21875 L 38.859375 -136.21875 L 38.859375 -3.84375 C 38.859375 -1.28125 40.132812 0 42.6875 0 L 67.625 0 C 70.1875 0 71.46875 -1.28125 71.46875 -3.84375 L 71.46875 -136.21875 L 99.28125 -136.21875 C 101.84375 -136.21875 103.125 -137.5 103.125 -140.0625 L 103.125 -164.046875 C 103.125 -166.597656 101.84375 -167.875 99.28125 -167.875 Z M 99.28125 -167.875 "/></g></g></g><g fill="#2dc6bb" fill-opacity="1"><g transform="translate(418.358506, 479.248782)"><g><path d="M 107.921875 -133.34375 L 107.921875 -85.140625 C 107.921875 -71.234375 103.445312 -61.476562 94.5 -55.875 L 106.96875 -4.3125 C 107.757812 -1.4375 106.640625 0 103.609375 0 L 80.109375 0 C 77.867188 0 76.507812 -1.117188 76.03125 -3.359375 L 64.515625 -50.609375 L 43.171875 -50.609375 L 43.171875 -3.84375 C 43.171875 -1.28125 41.890625 0 39.328125 0 L 15.828125 0 C 13.265625 0 11.984375 -1.28125 11.984375 -3.84375 L 11.984375 -164.046875 C 11.984375 -166.597656 13.265625 -167.875 15.828125 -167.875 L 73.390625 -167.875 C 84.742188 -167.875 93.335938 -164.957031 99.171875 -159.125 C 105.003906 -153.289062 107.921875 -144.695312 107.921875 -133.34375 Z M 43.171875 -81.546875 L 67.15625 -81.546875 C 73.550781 -81.546875 76.75 -84.742188 76.75 -91.140625 L 76.75 -127.34375 C 76.75 -133.738281 73.550781 -136.9375 67.15625 -136.9375 L 43.171875 -136.9375 Z M 43.171875 -81.546875 "/></g></g></g><g fill="#2dc6bb" fill-opacity="1"><g transform="translate(530.340529, 479.248782)"><g><path d="M 11.984375 -34.53125 L 11.984375 -133.34375 C 11.984375 -144.695312 14.941406 -153.289062 20.859375 -159.125 C 26.773438 -164.957031 35.332031 -167.875 46.53125 -167.875 L 73.390625 -167.875 C 84.742188 -167.875 93.335938 -164.957031 99.171875 -159.125 C 105.003906 -153.289062 107.921875 -144.695312 107.921875 -133.34375 L 107.921875 -34.53125 C 107.921875 -23.34375 105.003906 -14.789062 99.171875 -8.875 C 93.335938 -2.957031 84.742188 0 73.390625 0 L 46.53125 0 C 35.332031 0 26.773438 -2.957031 20.859375 -8.875 C 14.941406 -14.789062 11.984375 -23.34375 11.984375 -34.53125 Z M 52.765625 -30.9375 L 68.109375 -30.9375 C 74.503906 -30.9375 77.703125 -34.132812 77.703125 -40.53125 L 77.703125 -127.34375 C 77.703125 -133.738281 74.503906 -136.9375 68.109375 -136.9375 L 52.765625 -136.9375 C 46.367188 -136.9375 43.171875 -133.738281 43.171875 -127.34375 L 43.171875 -40.53125 C 43.171875 -34.132812 46.367188 -30.9375 52.765625 -30.9375 Z M 52.765625 -30.9375 "/></g></g></g><g fill="#2dc6bb" fill-opacity="1"><g transform="translate(642.322535, 479.248782)"><g><path d="M 88.015625 -167.875 L 110.5625 -167.875 C 113.113281 -167.875 114.390625 -166.597656 114.390625 -164.046875 L 114.390625 -3.84375 C 114.390625 -1.28125 113.113281 0 110.5625 0 L 91.609375 0 C 89.691406 0 88.253906 -1.039062 87.296875 -3.125 L 42.203125 -94.734375 L 42.203125 -3.84375 C 42.203125 -1.28125 40.925781 0 38.375 0 L 15.828125 0 C 13.265625 0 11.984375 -1.28125 11.984375 -3.84375 L 11.984375 -164.046875 C 11.984375 -166.597656 13.265625 -167.875 15.828125 -167.875 L 34.78125 -167.875 C 36.695312 -167.875 38.132812 -166.835938 39.09375 -164.765625 L 84.171875 -73.140625 L 84.171875 -164.046875 C 84.171875 -166.597656 85.453125 -167.875 88.015625 -167.875 Z M 88.015625 -167.875 "/></g></g></g><g fill="#2dc6bb" fill-opacity="1"><g transform="translate(760.800616, 479.248782)"><g/></g></g><g fill="#125772" fill-opacity="1"><g transform="translate(830.26851, 486.425861)"><g><path d="M 10.40625 -180.96875 L 93.65625 -180.96875 C 96.070312 -180.96875 97.28125 -179.765625 97.28125 -177.359375 L 97.28125 -154.734375 C 97.28125 -152.316406 96.070312 -151.109375 93.65625 -151.109375 L 67.40625 -151.109375 L 67.40625 -3.625 C 67.40625 -1.207031 66.203125 0 63.796875 0 L 40.265625 0 C 37.847656 0 36.640625 -1.207031 36.640625 -3.625 L 36.640625 -151.109375 L 10.40625 -151.109375 C 7.988281 -151.109375 6.78125 -152.316406 6.78125 -154.734375 L 6.78125 -177.359375 C 6.78125 -179.765625 7.988281 -180.96875 10.40625 -180.96875 Z M 10.40625 -180.96875 "/></g></g></g><g fill="#125772" fill-opacity="1"><g transform="translate(932.729709, 486.425861)"><g><path d="M 101.796875 -125.78125 L 101.796875 -80.3125 C 101.796875 -67.1875 97.570312 -57.984375 89.125 -52.703125 L 100.890625 -4.078125 C 101.648438 -1.359375 100.59375 0 97.71875 0 L 75.5625 0 C 73.445312 0 72.164062 -1.054688 71.71875 -3.171875 L 60.859375 -47.734375 L 40.71875 -47.734375 L 40.71875 -3.625 C 40.71875 -1.207031 39.507812 0 37.09375 0 L 14.9375 0 C 12.519531 0 11.3125 -1.207031 11.3125 -3.625 L 11.3125 -154.734375 C 11.3125 -157.148438 12.519531 -158.359375 14.9375 -158.359375 L 69.21875 -158.359375 C 79.925781 -158.359375 88.03125 -155.601562 93.53125 -150.09375 C 99.039062 -144.59375 101.796875 -136.488281 101.796875 -125.78125 Z M 40.71875 -76.921875 L 63.34375 -76.921875 C 69.375 -76.921875 72.390625 -79.9375 72.390625 -85.96875 L 72.390625 -120.125 C 72.390625 -126.15625 69.375 -129.171875 63.34375 -129.171875 L 40.71875 -129.171875 Z M 40.71875 -76.921875 "/></g></g></g><g fill="#125772" fill-opacity="1"><g transform="translate(1044.23825, 486.425861)"><g><path d="M 118.09375 0 L 96.140625 0 C 94.179688 0 92.976562 -1.054688 92.53125 -3.171875 L 85.28125 -31.671875 L 42.75 -31.671875 L 35.75 -3.171875 C 35.289062 -1.054688 34.082031 0 32.125 0 L 9.953125 0 C 7.234375 0 6.253906 -1.28125 7.015625 -3.84375 L 44.5625 -155.1875 C 45.019531 -157.300781 46.300781 -158.359375 48.40625 -158.359375 L 79.859375 -158.359375 C 81.960938 -158.359375 83.242188 -157.300781 83.703125 -155.1875 L 121.25 -3.84375 C 122.007812 -1.28125 120.957031 0 118.09375 0 Z M 78.265625 -57.90625 L 64.015625 -119.4375 L 49.765625 -57.90625 Z M 78.265625 -57.90625 "/></g></g></g><g fill="#125772" fill-opacity="1"><g transform="translate(1170.90117, 486.425861)"><g><path d="M 86.640625 -158.359375 L 107.234375 -158.359375 C 110.703125 -158.359375 112.054688 -156.695312 111.296875 -153.375 L 75.328125 -4.078125 C 74.722656 -1.359375 73.066406 0 70.359375 0 L 47.734375 0 C 45.171875 0 43.507812 -1.359375 42.75 -4.078125 L 7.015625 -153.375 C 6.253906 -156.695312 7.609375 -158.359375 11.078125 -158.359375 L 31.671875 -158.359375 C 34.390625 -158.359375 36.046875 -157 36.640625 -154.28125 L 59.046875 -52.03125 L 81.671875 -154.28125 C 82.421875 -157 84.078125 -158.359375 86.640625 -158.359375 Z M 86.640625 -158.359375 "/></g></g></g><g fill="#125772" fill-opacity="1"><g transform="translate(1287.611955, 486.425861)"><g><path d="M 101.578125 -154.734375 L 101.578125 -132.109375 C 101.578125 -129.546875 100.367188 -128.265625 97.953125 -128.265625 L 42.078125 -128.265625 L 42.078125 -93.421875 L 84.609375 -93.421875 C 87.015625 -93.421875 88.21875 -92.140625 88.21875 -89.578125 L 88.21875 -67.1875 C 88.21875 -64.625 87.015625 -63.34375 84.609375 -63.34375 L 42.078125 -63.34375 L 42.078125 -29.859375 L 97.953125 -29.859375 C 100.367188 -29.859375 101.578125 -28.648438 101.578125 -26.234375 L 101.578125 -3.625 C 101.578125 -1.207031 100.367188 0 97.953125 0 L 14.703125 0 C 12.441406 0 11.3125 -1.207031 11.3125 -3.625 L 11.3125 -154.734375 C 11.3125 -157.148438 12.441406 -158.359375 14.703125 -158.359375 L 97.953125 -158.359375 C 100.367188 -158.359375 101.578125 -157.148438 101.578125 -154.734375 Z M 101.578125 -154.734375 "/></g></g></g><g fill="#125772" fill-opacity="1"><g transform="translate(1398.894347, 486.425861)"><g><path d="M 42.078125 -29.859375 L 42.078125 -154.734375 C 42.078125 -157.148438 40.867188 -158.359375 38.453125 -158.359375 L 14.9375 -158.359375 C 12.519531 -158.359375 11.3125 -157.148438 11.3125 -154.734375 L 11.3125 -3.625 C 11.3125 -1.207031 12.519531 0 14.9375 0 L 86.875 0 C 89.28125 0 90.484375 -1.207031 90.484375 -3.625 L 90.484375 -26.234375 C 90.484375 -28.648438 89.28125 -29.859375 86.875 -29.859375 Z M 42.078125 -29.859375 "/></g></g></g><g clip-path="url(#0293b11310)"><g clip-path="url(#67a25a9980)"><g clip-path="url(#c439a61af9)"><path fill="#125772" d="M 163.261719 416.117188 C 161.988281 399.429688 160.292969 383.503906 158.09375 368.023438 C 155.535156 350.007812 152.925781 334.902344 160.347656 317.976562 C 169.15625 297.894531 186.21875 288.632812 198.894531 280.703125 C 221.5 266.5625 241.195312 250.046875 248.949219 239.660156 C 276.546875 202.703125 280.910156 141.816406 251.679688 93.011719 C 221.273438 42.238281 163.894531 23.800781 120.945312 27.226562 C 57.761719 32.265625 17.574219 89.515625 15.847656 87.855469 C 14.351562 86.417969 40.410156 43.238281 90.949219 26.707031 C 153.273438 6.316406 228.640625 34.390625 266.519531 89.113281 C 283.597656 113.78125 292.910156 143.648438 293.066406 173.863281 C 293.222656 204.058594 284.480469 238.820312 261.636719 266.652344 C 252.179688 278.175781 239.527344 289.261719 222.902344 298.9375 C 216.910156 302.425781 192.035156 310.144531 180.523438 323.035156 C 165.851562 339.476562 164.75 363.953125 163.617188 403.613281 C 163.5 407.699219 163.378906 411.949219 163.261719 416.117188 Z M 163.261719 416.117188 " fill-opacity="1" fill-rule="evenodd"/></g></g></g><g clip-path="url(#24ea67b547)"><g clip-path="url(#954cb18c39)"><g clip-path="url(#0835e15855)"><path fill="#125772" d="M 143.03125 125.433594 C 144.097656 123.242188 131.390625 110.917969 118.410156 113.050781 C 104.199219 115.382812 95.230469 134.15625 94.800781 148.921875 C 93.980469 176.941406 123.777344 199.351562 125.804688 197.695312 C 126.128906 197.429688 125.285156 195.703125 123.949219 192.773438 C 116.644531 176.722656 107.445312 166.378906 106.628906 153.464844 C 105.988281 143.277344 109.5 130.671875 118.054688 125.554688 C 128.226562 119.46875 142 127.539062 143.03125 125.433594 Z M 143.03125 125.433594 " fill-opacity="1" fill-rule="evenodd"/></g></g></g><g clip-path="url(#f97ae4b0f4)"><g clip-path="url(#11893e1763)"><g clip-path="url(#ba0236e3ef)"><path fill="#2dc6bb" d="M 122.679688 542.542969 C 88.609375 406.757812 13.554688 107.648438 12.683594 103.777344 C 12.578125 103.3125 12.125 101.089844 11.910156 99.636719 C 11.785156 98.789062 11.625 97.441406 11.597656 97.15625 C 10.910156 90.507812 37.078125 42.234375 95.496094 26.511719 C 141.976562 14.003906 200.007812 25.199219 239.382812 65.984375 C 290.910156 119.355469 291.585938 205.238281 256.464844 251.84375 C 240.636719 272.847656 216.492188 287.140625 202.28125 293.875 C 193.816406 297.890625 182.546875 302.269531 173.082031 314.140625 C 155.105469 336.6875 159.160156 367.292969 160.558594 378.730469 C 165.523438 419.304688 164.679688 436.085938 165.242188 436.003906 C 166.625 435.804688 140.296875 259.847656 136.714844 233.929688 C 143.445312 235.332031 149.285156 238.175781 155.210938 240.152344 C 162.300781 242.523438 169.117188 244.535156 172.078125 244.238281 C 173.675781 244.078125 175.308594 244.398438 176.203125 243.25 C 176.589844 242.753906 176.839844 242.179688 176.972656 241.554688 C 176.699219 234.347656 176.328125 224.648438 176.050781 217.441406 C 175.789062 216.03125 175.1875 214.058594 174.230469 213.347656 C 171.847656 211.578125 167.96875 213.167969 166.75 213.632812 C 160.238281 216.125 147.039062 218.734375 135.375 220.660156 C 145.605469 212.5625 153.722656 202.761719 159.242188 191.4375 C 172.738281 163.742188 174.652344 119.019531 148.332031 101.929688 C 135.363281 93.511719 116.785156 92.597656 103.308594 100.316406 C 76.140625 115.878906 75.097656 163.464844 91.863281 193.175781 C 98.335938 204.648438 107.820312 214.070312 119.578125 221.261719 C 108.257812 220.535156 94.183594 219.382812 87.792969 217.480469 C 86.679688 217.148438 83.167969 216.011719 81.144531 217.734375 C 80.089844 218.628906 79.644531 220.125 79.640625 221.953125 C 79.957031 230.269531 80.273438 238.582031 80.589844 246.894531 C 80.839844 248.304688 81.40625 249.460938 82.378906 250.160156 C 84.078125 251.371094 86.546875 250.851562 89.03125 249.90625 C 95.023438 247.621094 110.890625 239.703125 120.917969 234.535156 C 121.503906 337.203125 122.09375 439.871094 122.679688 542.542969 Z M 122.679688 542.542969 " fill-opacity="1" fill-rule="evenodd"/></g></g></g></svg>