<?xml version="1.0" encoding="UTF-8"?>
<svg id="Layer_2" data-name="Layer 2" xmlns="http://www.w3.org/2000/svg" viewBox="0 0 66.99 62.26">
  <defs>
    <style>
      .cls-1 {
        fill: #28ccc0;
      }
    </style>
  </defs>
  <g id="Layer_1-2" data-name="Layer 1">
    <g>
      <path class="cls-1" d="m64.62,9.69s-.01-.02-.02-.03c-2-3.61-5.14-6.5-8.93-8.17h0c-.47-.19-.95-.36-1.44-.52C51.78.23,49.23,0,46.67,0l-22.66.08c-2.85,0-5.58.48-8.05,1.96-.92.55-1.84,1.18-2.61,1.93-.69.65-1.36,1.35-1.93,2.13-.94,1.3-1.72,2.7-2.14,4.21-.23.8-.42,1.62-.59,2.44-.1.48.27.94.76.94h15.42s4.87,0,4.87,0c.33,0,.62-.24.67-.57l.82-4.67c.22-2.57,2.38-4.59,5.01-4.59,2.77,0,5.03,2.25,5.03,5.03,0,.46-.06.9-.18,1.33l-.53,2.97c-.05.26.16.51.42.51h6.18c1.24,0,2.42.39,3.41,1.05,1.42.95,2.19,2.33,2.17,3.96-.02,2.36-.88,4.09-2.72,5-1.27.63-2.73.65-4.17.62-3.68-.06-2.49-.03-6.17-.03-.5,0-1.04-.03-1.18.62l-1.95,11.45c-.26,1.35-.14,1.62,1.22,1.62h10.39c6.11-.04,11.53-2.98,14.96-7.53,2.42-3.19,3.85-7.18,3.85-11.51,0-3.35-.86-6.5-2.37-9.23Z"/>
      <path class="cls-1" d="m28.26,25.24l-5.18,29.55c-.58,3.06-2.46,5.04-5.34,6.13-2.06.78-14.71,1.33-14.73,1.33-.85,0-2.12,0-2.12,0-.71.04-.94-.16-.88-.94l4.95-28.48c.02-.15.05-.29.08-.43h0l1.29-7.18c.1-.57.59-.98,1.17-.98h20c.66,0,.89.36.77.99Z"/>
    </g>
  </g>
</svg>