<?xml version="1.0" encoding="UTF-8"?>
<svg id="Layer_2" data-name="Layer 2" xmlns="http://www.w3.org/2000/svg" viewBox="0 0 62.46 62.26">
  <defs>
    <style>
      .cls-1 {
        fill: #28ccc0;
      }
    </style>
  </defs>
  <g id="Layer_1-2" data-name="Layer 1">
    <g>
      <path class="cls-1" d="m23.73,25.24l-5.18,29.55c-.58,3.06-2.46,5.04-5.34,6.13-2.06.78-10.17,1.33-10.2,1.33-.85,0-2.12,0-2.12,0-.71.04-.94-.16-.88-.94l4.95-28.48c.02-.15.05-.29.08-.43h0l1.29-7.18c.1-.57.59-.98,1.17-.98h15.47c.66,0,.89.36.77.99Z"/>
      <path class="cls-1" d="m62.46,18.93c0,4.32-1.43,8.31-3.85,11.51-3.44,4.55-8.86,7.48-14.96,7.51h-10.38c-1.36.02-1.49-.25-1.22-1.6l1.95-11.45c.14-.65.68-.62,1.18-.62,3.68,0,2.49-.02,6.17.03,1.44.03,2.9,0,4.17-.62,1.83-.91,2.69-2.63,2.72-5,.02-1.63-.76-3.01-2.17-3.96-.9-.6-1.96-.98-3.07-1.04h-9.41c-.31,0-.45-.39-.21-.58.92-.73,1.82-1.54,2.57-2.38.3-.33.57-.65.81-.98.63-.86,1.07-1.74,1.19-2.59.08-.57.02-1.12-.13-1.64,0-.02,0-.03-.01-.05-.6-1.94-2.67-3.47-5.32-3.7-2.66-.23-5.11.91-6.23,2.7-.02.03-.03.06-.05.09-.28.47-.48.99-.56,1.54-.12.84.07,1.78.46,2.73.14.36.32.73.52,1.09.62,1.15,1.45,2.3,2.31,3.33.15.18.02.46-.21.46h-4.93s-14.56,0-14.56,0c-.5,0-.87-.46-.76-.94.17-.82.37-1.63.59-2.44.43-1.51,1.2-2.92,2.14-4.21.57-.78,1.24-1.48,1.93-2.13.78-.74,1.69-1.37,2.61-1.93C18.18.55,20.91.08,23.76.08L42.13,0c2.56,0,5.11.23,7.55.98.49.15.97.32,1.44.52h0c3.79,1.67,6.93,4.56,8.93,8.17,0,.01.01.02.02.03,1.51,2.73,2.37,5.88,2.37,9.23Z"/>
    </g>
  </g>
</svg>