<?xml version="1.0" encoding="UTF-8"?>
<svg id="Layer_2" data-name="Layer 2" xmlns="http://www.w3.org/2000/svg" viewBox="0 0 62.46 62.26">
  <defs>
    <style>
      .cls-1 {
        fill: #28ccc0;
      }
    </style>
  </defs>
  <g id="Layer_1-2" data-name="Layer 1">
    <g>
      <path class="cls-1" d="m23.73,25.24l-5.18,29.55c-.58,3.06-2.46,5.04-5.34,6.13-2.06.78-10.17,1.33-10.2,1.33-.85,0-2.12,0-2.12,0-.71.04-.94-.16-.88-.94l4.95-28.48c.02-.15.05-.29.08-.43h0l1.29-7.18c.1-.57.59-.98,1.17-.98h15.47c.66,0,.89.36.77.99Z"/>
      <path class="cls-1" d="m60.08,9.7s-.01-.02-.02-.03c-2-3.61-5.15-6.5-8.93-8.17h0c-.47-.19-.95-.36-1.44-.52C47.25.23,44.69,0,42.13,0l-18.37.08c-2.85,0-5.58.48-8.05,1.96-.93.55-1.84,1.19-2.61,1.93-.69.65-1.36,1.35-1.93,2.13-.94,1.3-1.72,2.7-2.14,4.21-.23.8-.42,1.62-.59,2.44-.1.49.27.94.76.94h14.56s2.83,0,2.83,0c-1.03-2.49-1.87-5.17-1.54-6.79.74-3.72,4.35-6.13,8.07-5.39,3.72.74,6.13,4.35,5.39,8.07-.24,1.19-1.27,2.66-2.55,4.12h7.03c1.11.07,2.17.44,3.07,1.04,1.42.95,2.19,2.32,2.17,3.96-.02,2.36-.88,4.08-2.72,5-1.27.63-2.73.65-4.17.62-3.68-.06-2.49-.03-6.17-.03-.5,0-1.04-.03-1.18.62l-1.95,11.45c-.26,1.35-.14,1.62,1.22,1.61h10.38c6.11-.04,11.53-2.98,14.96-7.52,2.42-3.19,3.85-7.18,3.85-11.51,0-3.35-.86-6.5-2.37-9.23Z"/>
    </g>
  </g>
</svg>