<svg xmlns="http://www.w3.org/2000/svg" xmlns:xlink="http://www.w3.org/1999/xlink" width="500" zoomAndPan="magnify" viewBox="0 0 375 374.999991" height="500" preserveAspectRatio="xMidYMid meet" version="1.0"><defs><clipPath id="db113c7cd9"><path d="M 87 3 L 284 3 L 284 283 L 87 283 Z M 87 3 " clip-rule="nonzero"/></clipPath><clipPath id="a283099c82"><path d="M 83.722656 -3.382812 L 279.238281 -10.84375 L 290.339844 280.105469 L 94.824219 287.5625 Z M 83.722656 -3.382812 " clip-rule="nonzero"/></clipPath><clipPath id="d5280ccf83"><path d="M 83.722656 -3.382812 L 279.238281 -10.84375 L 290.339844 280.105469 L 94.824219 287.5625 Z M 83.722656 -3.382812 " clip-rule="nonzero"/></clipPath><clipPath id="68d0ca1a7f"><path d="M 143 68 L 178 68 L 178 129 L 143 129 Z M 143 68 " clip-rule="nonzero"/></clipPath><clipPath id="e42dfc860b"><path d="M 139.902344 67.871094 L 179.472656 66.359375 L 181.871094 129.203125 L 142.300781 130.714844 Z M 139.902344 67.871094 " clip-rule="nonzero"/></clipPath><clipPath id="e7f2e1d9e6"><path d="M 139.902344 67.871094 L 179.472656 66.359375 L 181.871094 129.203125 L 142.300781 130.714844 Z M 139.902344 67.871094 " clip-rule="nonzero"/></clipPath><clipPath id="86b9651ab2"><path d="M 84 4 L 275 4 L 275 372 L 84 372 Z M 84 4 " clip-rule="nonzero"/></clipPath><clipPath id="c5615a269d"><path d="M 81.265625 1.984375 L 279.109375 -5.566406 L 293.316406 366.84375 L 95.476562 374.394531 Z M 81.265625 1.984375 " clip-rule="nonzero"/></clipPath><clipPath id="d4b71aa11a"><path d="M 81.265625 1.984375 L 279.109375 -5.566406 L 293.316406 366.84375 L 95.476562 374.394531 Z M 81.265625 1.984375 " clip-rule="nonzero"/></clipPath></defs><g clip-path="url(#db113c7cd9)"><g clip-path="url(#a283099c82)"><g clip-path="url(#d5280ccf83)"><path fill="#001737" d="M 191.542969 282.628906 C 190.644531 270.859375 189.449219 259.625 187.898438 248.707031 C 186.09375 236 184.253906 225.34375 189.488281 213.40625 C 195.699219 199.242188 207.734375 192.707031 216.675781 187.117188 C 232.621094 177.140625 246.511719 165.492188 251.980469 158.164062 C 271.445312 132.097656 274.523438 89.152344 253.910156 54.726562 C 232.460938 18.914062 191.988281 5.910156 161.695312 8.324219 C 117.128906 11.878906 88.78125 52.261719 87.5625 51.089844 C 86.507812 50.078125 104.890625 19.621094 140.535156 7.957031 C 184.496094 -6.425781 237.65625 13.378906 264.375 51.980469 C 276.417969 69.378906 282.988281 90.445312 283.101562 111.757812 C 283.210938 133.054688 277.042969 157.574219 260.929688 177.207031 C 254.261719 185.335938 245.335938 193.152344 233.609375 199.976562 C 229.382812 202.4375 211.835938 207.882812 203.71875 216.976562 C 193.367188 228.570312 192.589844 245.835938 191.792969 273.8125 C 191.710938 276.691406 191.625 279.691406 191.542969 282.628906 Z M 191.542969 282.628906 " fill-opacity="1" fill-rule="evenodd"/></g></g></g><g clip-path="url(#68d0ca1a7f)"><g clip-path="url(#e42dfc860b)"><g clip-path="url(#e7f2e1d9e6)"><path fill="#0b3444" d="M 177.265625 77.601562 C 178.019531 76.054688 169.058594 67.363281 159.90625 68.867188 C 149.886719 70.511719 143.5625 83.75 143.257812 94.164062 C 142.679688 113.921875 163.6875 129.722656 165.117188 128.554688 C 165.347656 128.367188 164.753906 127.148438 163.8125 125.082031 C 158.660156 113.765625 152.175781 106.472656 151.597656 97.367188 C 151.144531 90.183594 153.621094 81.292969 159.65625 77.683594 C 166.828125 73.394531 176.539062 79.085938 177.265625 77.601562 Z M 177.265625 77.601562 " fill-opacity="1" fill-rule="evenodd"/></g></g></g><g clip-path="url(#86b9651ab2)"><g clip-path="url(#c5615a269d)"><g clip-path="url(#d4b71aa11a)"><path fill="#2dc6bb" d="M 162.910156 371.800781 C 138.882812 276.027344 85.945312 65.066406 85.328125 62.335938 C 85.257812 62.007812 84.9375 60.441406 84.785156 59.414062 C 84.695312 58.816406 84.585938 57.863281 84.5625 57.664062 C 84.078125 52.976562 102.535156 18.929688 143.738281 7.839844 C 176.519531 -0.984375 217.453125 6.914062 245.222656 35.679688 C 281.566406 73.324219 282.042969 133.894531 257.273438 166.765625 C 246.105469 181.582031 229.078125 191.664062 219.054688 196.414062 C 213.085938 199.242188 205.136719 202.332031 198.460938 210.707031 C 185.78125 226.609375 188.640625 248.195312 189.628906 256.261719 C 193.128906 284.878906 192.535156 296.714844 192.929688 296.65625 C 193.90625 296.515625 175.335938 172.414062 172.8125 154.132812 C 177.558594 155.121094 181.675781 157.125 185.855469 158.523438 C 190.855469 160.191406 195.664062 161.613281 197.753906 161.402344 C 198.878906 161.289062 200.03125 161.515625 200.664062 160.703125 C 200.933594 160.355469 201.109375 159.953125 201.203125 159.507812 C 201.011719 154.425781 200.75 147.585938 200.554688 142.503906 C 200.371094 141.507812 199.945312 140.117188 199.269531 139.617188 C 197.589844 138.367188 194.855469 139.488281 193.992188 139.816406 C 189.402344 141.574219 180.089844 143.414062 171.867188 144.773438 C 179.082031 139.0625 184.804688 132.148438 188.699219 124.164062 C 198.21875 104.628906 199.570312 73.085938 181.003906 61.03125 C 171.859375 55.09375 158.753906 54.449219 149.25 59.894531 C 130.085938 70.871094 129.351562 104.433594 141.175781 125.390625 C 145.742188 133.480469 152.433594 140.125 160.726562 145.199219 C 152.738281 144.683594 142.8125 143.871094 138.308594 142.53125 C 137.519531 142.296875 135.042969 141.496094 133.617188 142.710938 C 132.871094 143.339844 132.558594 144.394531 132.554688 145.6875 C 132.777344 151.550781 133.003906 157.414062 133.226562 163.277344 C 133.402344 164.273438 133.800781 165.089844 134.488281 165.578125 C 135.683594 166.433594 137.425781 166.070312 139.179688 165.398438 C 143.40625 163.789062 154.597656 158.207031 161.667969 154.558594 C 162.082031 226.972656 162.496094 299.386719 162.910156 371.800781 Z M 162.910156 371.800781 " fill-opacity="1" fill-rule="evenodd"/></g></g></g></svg>