<svg xmlns="http://www.w3.org/2000/svg" xmlns:xlink="http://www.w3.org/1999/xlink" width="500" zoomAndPan="magnify" viewBox="0 0 375 374.999991" height="500" preserveAspectRatio="xMidYMid meet" version="1.0"><defs><g/><clipPath id="d832b5e901"><path d="M 4 9 L 141 9 L 141 206 L 4 206 Z M 4 9 " clip-rule="nonzero"/></clipPath><clipPath id="00bc243e6f"><path d="M 1.71875 5.238281 L 138.9375 0 L 146.667969 202.605469 L 9.449219 207.839844 Z M 1.71875 5.238281 " clip-rule="nonzero"/></clipPath><clipPath id="e3260ad323"><path d="M 1.71875 5.238281 L 138.9375 0 L 146.667969 202.605469 L 9.449219 207.839844 Z M 1.71875 5.238281 " clip-rule="nonzero"/></clipPath><clipPath id="bc4fd71c0b"><path d="M 43 55 L 68 55 L 68 98 L 43 98 Z M 43 55 " clip-rule="nonzero"/></clipPath><clipPath id="9e96902bcd"><path d="M 40.964844 55.011719 L 68.410156 53.964844 L 70.101562 98.359375 L 42.660156 99.40625 Z M 40.964844 55.011719 " clip-rule="nonzero"/></clipPath><clipPath id="ad74d35558"><path d="M 40.964844 55.011719 L 68.410156 53.964844 L 70.101562 98.359375 L 42.660156 99.40625 Z M 40.964844 55.011719 " clip-rule="nonzero"/></clipPath><clipPath id="7a70fea297"><path d="M 2 10 L 135 10 L 135 268 L 2 268 Z M 2 10 " clip-rule="nonzero"/></clipPath><clipPath id="652f1c6be8"><path d="M 0 8.984375 L 138.835938 3.6875 L 148.785156 264.410156 L 9.949219 269.707031 Z M 0 8.984375 " clip-rule="nonzero"/></clipPath><clipPath id="9e30732464"><path d="M 0 8.984375 L 138.835938 3.6875 L 148.785156 264.410156 L 9.949219 269.707031 Z M 0 8.984375 " clip-rule="nonzero"/></clipPath></defs><g fill="#28ccc0" fill-opacity="1"><g transform="translate(90.973316, 250.988718)"><g><path d="M 57.125 0 L 46.515625 0 C 45.566406 0 44.984375 -0.507812 44.765625 -1.53125 L 41.265625 -15.328125 L 20.6875 -15.328125 L 17.296875 -1.53125 C 17.078125 -0.507812 16.492188 0 15.546875 0 L 4.8125 0 C 3.5 0 3.023438 -0.617188 3.390625 -1.859375 L 21.5625 -75.078125 C 21.78125 -76.097656 22.398438 -76.609375 23.421875 -76.609375 L 38.625 -76.609375 C 39.644531 -76.609375 40.265625 -76.097656 40.484375 -75.078125 L 58.65625 -1.859375 C 59.019531 -0.617188 58.507812 0 57.125 0 Z M 37.859375 -28.015625 L 30.96875 -57.78125 L 24.078125 -28.015625 Z M 37.859375 -28.015625 "/></g></g></g><g fill="#28ccc0" fill-opacity="1"><g transform="translate(151.043999, 250.988718)"><g><path d="M 45.3125 -76.609375 L 5.03125 -76.609375 C 3.863281 -76.609375 3.28125 -76.023438 3.28125 -74.859375 L 3.28125 -63.90625 C 3.28125 -62.738281 3.863281 -62.15625 5.03125 -62.15625 L 17.734375 -62.15625 L 17.734375 -1.75 C 17.734375 -0.582031 18.316406 0 19.484375 0 L 30.859375 0 C 32.023438 0 32.609375 -0.582031 32.609375 -1.75 L 32.609375 -62.15625 L 45.3125 -62.15625 C 46.476562 -62.15625 47.0625 -62.738281 47.0625 -63.90625 L 47.0625 -74.859375 C 47.0625 -76.023438 46.476562 -76.609375 45.3125 -76.609375 Z M 45.3125 -76.609375 "/></g></g></g><g fill="#28ccc0" fill-opacity="1"><g transform="translate(199.40684, 250.988718)"><g><path d="M 49.25 -60.84375 L 49.25 -38.84375 C 49.25 -32.5 47.207031 -28.050781 43.125 -25.5 L 48.8125 -1.96875 C 49.175781 -0.65625 48.664062 0 47.28125 0 L 36.546875 0 C 35.523438 0 34.90625 -0.507812 34.6875 -1.53125 L 29.4375 -23.09375 L 19.703125 -23.09375 L 19.703125 -1.75 C 19.703125 -0.582031 19.117188 0 17.953125 0 L 7.21875 0 C 6.050781 0 5.46875 -0.582031 5.46875 -1.75 L 5.46875 -74.859375 C 5.46875 -76.023438 6.050781 -76.609375 7.21875 -76.609375 L 33.484375 -76.609375 C 38.671875 -76.609375 42.59375 -75.273438 45.25 -72.609375 C 47.914062 -69.953125 49.25 -66.03125 49.25 -60.84375 Z M 19.703125 -37.203125 L 30.640625 -37.203125 C 33.554688 -37.203125 35.015625 -38.664062 35.015625 -41.59375 L 35.015625 -58.109375 C 35.015625 -61.023438 33.554688 -62.484375 30.640625 -62.484375 L 19.703125 -62.484375 Z M 19.703125 -37.203125 "/></g></g></g><g fill="#28ccc0" fill-opacity="1"><g transform="translate(252.146435, 250.988718)"><g><path d="M 5.46875 -15.765625 L 5.46875 -60.84375 C 5.46875 -66.03125 6.816406 -69.953125 9.515625 -72.609375 C 12.210938 -75.273438 16.117188 -76.609375 21.234375 -76.609375 L 33.484375 -76.609375 C 38.671875 -76.609375 42.59375 -75.273438 45.25 -72.609375 C 47.914062 -69.953125 49.25 -66.03125 49.25 -60.84375 L 49.25 -15.765625 C 49.25 -10.648438 47.914062 -6.742188 45.25 -4.046875 C 42.59375 -1.347656 38.671875 0 33.484375 0 L 21.234375 0 C 16.117188 0 12.210938 -1.347656 9.515625 -4.046875 C 6.816406 -6.742188 5.46875 -10.648438 5.46875 -15.765625 Z M 24.078125 -14.125 L 31.078125 -14.125 C 33.992188 -14.125 35.453125 -15.582031 35.453125 -18.5 L 35.453125 -58.109375 C 35.453125 -61.023438 33.992188 -62.484375 31.078125 -62.484375 L 24.078125 -62.484375 C 21.160156 -62.484375 19.703125 -61.023438 19.703125 -58.109375 L 19.703125 -18.5 C 19.703125 -15.582031 21.160156 -14.125 24.078125 -14.125 Z M 24.078125 -14.125 "/></g></g></g><g fill="#28ccc0" fill-opacity="1"><g transform="translate(304.886018, 250.988718)"><g><path d="M 40.15625 -76.609375 L 50.453125 -76.609375 C 51.617188 -76.609375 52.203125 -76.023438 52.203125 -74.859375 L 52.203125 -1.75 C 52.203125 -0.582031 51.617188 0 50.453125 0 L 41.8125 0 C 40.925781 0 40.265625 -0.472656 39.828125 -1.421875 L 19.265625 -43.234375 L 19.265625 -1.75 C 19.265625 -0.582031 18.679688 0 17.515625 0 L 7.21875 0 C 6.050781 0 5.46875 -0.582031 5.46875 -1.75 L 5.46875 -74.859375 C 5.46875 -76.023438 6.050781 -76.609375 7.21875 -76.609375 L 15.875 -76.609375 C 16.75 -76.609375 17.40625 -76.132812 17.84375 -75.1875 L 38.40625 -33.375 L 38.40625 -74.859375 C 38.40625 -76.023438 38.988281 -76.609375 40.15625 -76.609375 Z M 40.15625 -76.609375 "/></g></g></g><g fill="#28ccc0" fill-opacity="1"><g transform="translate(360.590248, 250.988718)"><g/></g></g><g fill="#0b3444" fill-opacity="1"><g transform="translate(47.581381, 353.059033)"><g><path d="M 4.5625 -79.375 L 41.078125 -79.375 C 42.140625 -79.375 42.671875 -78.84375 42.671875 -77.78125 L 42.671875 -67.859375 C 42.671875 -66.804688 42.140625 -66.28125 41.078125 -66.28125 L 29.5625 -66.28125 L 29.5625 -1.59375 C 29.5625 -0.53125 29.035156 0 27.984375 0 L 17.65625 0 C 16.601562 0 16.078125 -0.53125 16.078125 -1.59375 L 16.078125 -66.28125 L 4.5625 -66.28125 C 3.507812 -66.28125 2.984375 -66.804688 2.984375 -67.859375 L 2.984375 -77.78125 C 2.984375 -78.84375 3.507812 -79.375 4.5625 -79.375 Z M 4.5625 -79.375 "/></g></g></g><g fill="#0b3444" fill-opacity="1"><g transform="translate(95.992529, 353.059033)"><g><path d="M 44.65625 -55.171875 L 44.65625 -35.21875 C 44.65625 -29.46875 42.800781 -25.4375 39.09375 -23.125 L 44.25 -1.78125 C 44.582031 -0.59375 44.117188 0 42.859375 0 L 33.140625 0 C 32.210938 0 31.648438 -0.460938 31.453125 -1.390625 L 26.6875 -20.9375 L 17.859375 -20.9375 L 17.859375 -1.59375 C 17.859375 -0.53125 17.328125 0 16.265625 0 L 6.546875 0 C 5.492188 0 4.96875 -0.53125 4.96875 -1.59375 L 4.96875 -67.859375 C 4.96875 -68.921875 5.492188 -69.453125 6.546875 -69.453125 L 30.359375 -69.453125 C 35.054688 -69.453125 38.613281 -68.242188 41.03125 -65.828125 C 43.445312 -63.410156 44.65625 -59.859375 44.65625 -55.171875 Z M 17.859375 -33.734375 L 27.78125 -33.734375 C 30.425781 -33.734375 31.75 -35.054688 31.75 -37.703125 L 31.75 -52.6875 C 31.75 -55.332031 30.425781 -56.65625 27.78125 -56.65625 L 17.859375 -56.65625 Z M 17.859375 -33.734375 "/></g></g></g><g fill="#0b3444" fill-opacity="1"><g transform="translate(148.371764, 353.059033)"><g><path d="M 51.796875 0 L 42.171875 0 C 41.304688 0 40.773438 -0.460938 40.578125 -1.390625 L 37.40625 -13.890625 L 18.75 -13.890625 L 15.671875 -1.390625 C 15.472656 -0.460938 14.945312 0 14.09375 0 L 4.359375 0 C 3.171875 0 2.742188 -0.5625 3.078125 -1.6875 L 19.546875 -68.0625 C 19.742188 -68.988281 20.304688 -69.453125 21.234375 -69.453125 L 35.03125 -69.453125 C 35.945312 -69.453125 36.507812 -68.988281 36.71875 -68.0625 L 53.1875 -1.6875 C 53.507812 -0.5625 53.046875 0 51.796875 0 Z M 34.328125 -25.40625 L 28.078125 -52.390625 L 21.828125 -25.40625 Z M 34.328125 -25.40625 "/></g></g></g><g fill="#0b3444" fill-opacity="1"><g transform="translate(207.397585, 353.059033)"><g><path d="M 38 -69.453125 L 47.03125 -69.453125 C 48.550781 -69.453125 49.144531 -68.722656 48.8125 -67.265625 L 33.046875 -1.78125 C 32.773438 -0.59375 32.046875 0 30.859375 0 L 20.9375 0 C 19.8125 0 19.082031 -0.59375 18.75 -1.78125 L 3.078125 -67.265625 C 2.742188 -68.722656 3.335938 -69.453125 4.859375 -69.453125 L 13.890625 -69.453125 C 15.078125 -69.453125 15.804688 -68.859375 16.078125 -67.671875 L 25.890625 -22.828125 L 35.8125 -67.671875 C 36.144531 -68.859375 36.875 -69.453125 38 -69.453125 Z M 38 -69.453125 "/></g></g></g><g fill="#0b3444" fill-opacity="1"><g transform="translate(262.058498, 353.059033)"><g><path d="M 44.546875 -67.859375 L 44.546875 -57.9375 C 44.546875 -56.8125 44.019531 -56.25 42.96875 -56.25 L 18.453125 -56.25 L 18.453125 -40.984375 L 37.109375 -40.984375 C 38.171875 -40.984375 38.703125 -40.421875 38.703125 -39.296875 L 38.703125 -29.46875 C 38.703125 -28.34375 38.171875 -27.78125 37.109375 -27.78125 L 18.453125 -27.78125 L 18.453125 -13.09375 L 42.96875 -13.09375 C 44.019531 -13.09375 44.546875 -12.566406 44.546875 -11.515625 L 44.546875 -1.59375 C 44.546875 -0.53125 44.019531 0 42.96875 0 L 6.453125 0 C 5.460938 0 4.96875 -0.53125 4.96875 -1.59375 L 4.96875 -67.859375 C 4.96875 -68.921875 5.460938 -69.453125 6.453125 -69.453125 L 42.96875 -69.453125 C 44.019531 -69.453125 44.546875 -68.921875 44.546875 -67.859375 Z M 44.546875 -67.859375 "/></g></g></g><g fill="#0b3444" fill-opacity="1"><g transform="translate(314.338523, 353.059033)"><g><path d="M 18.453125 -13.09375 L 18.453125 -67.859375 C 18.453125 -68.921875 17.925781 -69.453125 16.875 -69.453125 L 6.546875 -69.453125 C 5.492188 -69.453125 4.96875 -68.921875 4.96875 -67.859375 L 4.96875 -1.59375 C 4.96875 -0.53125 5.492188 0 6.546875 0 L 38.09375 0 C 39.15625 0 39.6875 -0.53125 39.6875 -1.59375 L 39.6875 -11.515625 C 39.6875 -12.566406 39.15625 -13.09375 38.09375 -13.09375 Z M 18.453125 -13.09375 "/></g></g></g><g clip-path="url(#d832b5e901)"><g clip-path="url(#00bc243e6f)"><g clip-path="url(#e3260ad323)"><path fill="#001737" d="M 77.039062 205.046875 C 76.414062 196.824219 75.578125 188.976562 74.492188 181.347656 C 73.230469 172.472656 71.945312 165.027344 75.605469 156.691406 C 79.945312 146.792969 88.351562 142.230469 94.597656 138.324219 C 105.734375 131.355469 115.441406 123.214844 119.261719 118.097656 C 132.859375 99.886719 135.011719 69.882812 120.609375 45.835938 C 105.625 20.816406 77.351562 11.730469 56.1875 13.417969 C 25.054688 15.902344 5.25 44.113281 4.398438 43.296875 C 3.664062 42.585938 16.503906 21.3125 41.40625 13.164062 C 72.117188 3.117188 109.253906 16.953125 127.921875 43.914062 C 136.335938 56.070312 140.925781 70.789062 141 85.675781 C 141.078125 100.554688 136.769531 117.683594 125.515625 131.398438 C 120.855469 137.078125 114.621094 142.539062 106.425781 147.308594 C 103.476562 149.027344 91.214844 152.828125 85.546875 159.183594 C 78.316406 167.28125 77.769531 179.34375 77.214844 198.886719 C 77.15625 200.898438 77.097656 202.996094 77.039062 205.046875 Z M 77.039062 205.046875 " fill-opacity="1" fill-rule="evenodd"/></g></g></g><g clip-path="url(#bc4fd71c0b)"><g clip-path="url(#9e96902bcd)"><g clip-path="url(#ad74d35558)"><path fill="#0b3444" d="M 67.070312 61.8125 C 67.597656 60.734375 61.335938 54.660156 54.941406 55.710938 C 47.941406 56.859375 43.519531 66.109375 43.308594 73.386719 C 42.90625 87.191406 57.585938 98.234375 58.585938 97.417969 C 58.746094 97.285156 58.328125 96.433594 57.671875 94.992188 C 54.070312 87.082031 49.539062 81.988281 49.136719 75.625 C 48.820312 70.605469 50.550781 64.394531 54.765625 61.871094 C 59.777344 58.871094 66.566406 62.851562 67.070312 61.8125 Z M 67.070312 61.8125 " fill-opacity="1" fill-rule="evenodd"/></g></g></g><g clip-path="url(#7a70fea297)"><g clip-path="url(#652f1c6be8)"><g clip-path="url(#9e30732464)"><path fill="#28ccc0" d="M 57.042969 267.355469 C 40.253906 200.445312 3.269531 53.050781 2.839844 51.140625 C 2.789062 50.914062 2.566406 49.816406 2.457031 49.101562 C 2.398438 48.683594 2.320312 48.019531 2.304688 47.878906 C 1.964844 44.601562 14.859375 20.816406 43.648438 13.066406 C 66.554688 6.902344 95.148438 12.421875 114.554688 32.519531 C 139.945312 58.820312 140.277344 101.140625 122.972656 124.105469 C 115.171875 134.457031 103.273438 141.5 96.269531 144.820312 C 92.097656 146.796875 86.546875 148.953125 81.882812 154.804688 C 73.023438 165.917969 75.019531 180.996094 75.710938 186.632812 C 78.15625 206.628906 77.738281 214.898438 78.019531 214.859375 C 78.699219 214.757812 65.726562 128.050781 63.960938 115.277344 C 67.277344 115.96875 70.15625 117.371094 73.074219 118.347656 C 76.570312 119.511719 79.929688 120.503906 81.386719 120.359375 C 82.175781 120.28125 82.980469 120.4375 83.421875 119.871094 C 83.609375 119.625 83.734375 119.34375 83.800781 119.035156 C 83.664062 115.484375 83.480469 110.703125 83.34375 107.152344 C 83.214844 106.457031 82.917969 105.488281 82.449219 105.136719 C 81.273438 104.265625 79.363281 105.046875 78.761719 105.277344 C 75.550781 106.503906 69.046875 107.789062 63.300781 108.738281 C 68.34375 104.75 72.339844 99.917969 75.0625 94.339844 C 81.710938 80.691406 82.65625 58.652344 69.683594 50.230469 C 63.292969 46.082031 54.140625 45.632812 47.496094 49.4375 C 34.109375 57.105469 33.597656 80.554688 41.859375 95.195312 C 45.046875 100.847656 49.722656 105.492188 55.515625 109.035156 C 49.9375 108.679688 43 108.109375 39.855469 107.171875 C 39.304688 107.007812 37.574219 106.449219 36.574219 107.296875 C 36.058594 107.738281 35.835938 108.476562 35.835938 109.378906 C 35.992188 113.472656 36.148438 117.570312 36.304688 121.667969 C 36.425781 122.363281 36.707031 122.933594 37.1875 123.277344 C 38.023438 123.875 39.238281 123.617188 40.464844 123.152344 C 43.417969 122.027344 51.234375 118.125 56.175781 115.578125 C 56.464844 166.167969 56.753906 216.761719 57.042969 267.355469 Z M 57.042969 267.355469 " fill-opacity="1" fill-rule="evenodd"/></g></g></g></svg>