<svg xmlns="http://www.w3.org/2000/svg" xmlns:xlink="http://www.w3.org/1999/xlink" width="500" zoomAndPan="magnify" viewBox="0 0 375 374.999991" height="500" preserveAspectRatio="xMidYMid meet" version="1.0"><defs><g/><clipPath id="93994b6eba"><path d="M 2 108 L 75 108 L 75 212 L 2 212 Z M 2 108 " clip-rule="nonzero"/></clipPath><clipPath id="611748d11d"><path d="M 0.90625 105.785156 L 73.601562 103.007812 L 77.691406 210.183594 L 4.996094 212.957031 Z M 0.90625 105.785156 " clip-rule="nonzero"/></clipPath><clipPath id="fc58333e7d"><path d="M 0.90625 105.785156 L 73.601562 103.007812 L 77.691406 210.183594 L 4.996094 212.957031 Z M 0.90625 105.785156 " clip-rule="nonzero"/></clipPath><clipPath id="53eb508460"><path d="M 22 132 L 36 132 L 36 155 L 22 155 Z M 22 132 " clip-rule="nonzero"/></clipPath><clipPath id="e55cc7740b"><path d="M 21.613281 132.046875 L 35.855469 131.503906 L 36.742188 154.734375 L 22.5 155.28125 Z M 21.613281 132.046875 " clip-rule="nonzero"/></clipPath><clipPath id="b0204a24e4"><path d="M 21.613281 132.046875 L 35.855469 131.503906 L 36.742188 154.734375 L 22.5 155.28125 Z M 21.613281 132.046875 " clip-rule="nonzero"/></clipPath><clipPath id="02f4c24a20"><path d="M 1 108 L 72 108 L 72 245 L 1 245 Z M 1 108 " clip-rule="nonzero"/></clipPath><clipPath id="16f210cdb0"><path d="M 0 107.761719 L 72.695312 104.988281 L 77.929688 242.136719 L 5.234375 244.910156 Z M 0 107.761719 " clip-rule="nonzero"/></clipPath><clipPath id="190e77f5b9"><path d="M 0 107.761719 L 72.695312 104.988281 L 77.929688 242.136719 L 5.234375 244.910156 Z M 0 107.761719 " clip-rule="nonzero"/></clipPath></defs><g fill="#2dc6bb" fill-opacity="1"><g transform="translate(41.207329, 241.410183)"><g><path d="M 32.546875 0 L 26.5 0 C 25.957031 0 25.625 -0.289062 25.5 -0.875 L 23.515625 -8.734375 L 11.78125 -8.734375 L 9.859375 -0.875 C 9.734375 -0.289062 9.398438 0 8.859375 0 L 2.75 0 C 2 0 1.726562 -0.351562 1.9375 -1.0625 L 12.28125 -42.78125 C 12.40625 -43.363281 12.757812 -43.65625 13.34375 -43.65625 L 22.015625 -43.65625 C 22.597656 -43.65625 22.953125 -43.363281 23.078125 -42.78125 L 33.421875 -1.0625 C 33.628906 -0.351562 33.335938 0 32.546875 0 Z M 21.578125 -15.96875 L 17.640625 -32.921875 L 13.71875 -15.96875 Z M 21.578125 -15.96875 "/></g></g></g><g fill="#2dc6bb" fill-opacity="1"><g transform="translate(74.501424, 241.410183)"><g><path d="M 25.8125 -43.65625 L 2.875 -43.65625 C 2.207031 -43.65625 1.875 -43.320312 1.875 -42.65625 L 1.875 -36.421875 C 1.875 -35.753906 2.207031 -35.421875 2.875 -35.421875 L 10.109375 -35.421875 L 10.109375 -1 C 10.109375 -0.332031 10.4375 0 11.09375 0 L 17.578125 0 C 18.242188 0 18.578125 -0.332031 18.578125 -1 L 18.578125 -35.421875 L 25.8125 -35.421875 C 26.476562 -35.421875 26.8125 -35.753906 26.8125 -36.421875 L 26.8125 -42.65625 C 26.8125 -43.320312 26.476562 -43.65625 25.8125 -43.65625 Z M 25.8125 -43.65625 "/></g></g></g><g fill="#2dc6bb" fill-opacity="1"><g transform="translate(101.124113, 241.410183)"><g><path d="M 28.0625 -34.671875 L 28.0625 -22.140625 C 28.0625 -18.523438 26.894531 -15.988281 24.5625 -14.53125 L 27.8125 -1.125 C 28.019531 -0.375 27.726562 0 26.9375 0 L 20.828125 0 C 20.242188 0 19.890625 -0.289062 19.765625 -0.875 L 16.78125 -13.15625 L 11.21875 -13.15625 L 11.21875 -1 C 11.21875 -0.332031 10.890625 0 10.234375 0 L 4.109375 0 C 3.453125 0 3.125 -0.332031 3.125 -1 L 3.125 -42.65625 C 3.125 -43.320312 3.453125 -43.65625 4.109375 -43.65625 L 19.078125 -43.65625 C 22.035156 -43.65625 24.269531 -42.894531 25.78125 -41.375 C 27.300781 -39.851562 28.0625 -37.617188 28.0625 -34.671875 Z M 11.21875 -21.203125 L 17.453125 -21.203125 C 19.117188 -21.203125 19.953125 -22.035156 19.953125 -23.703125 L 19.953125 -33.109375 C 19.953125 -34.773438 19.117188 -35.609375 17.453125 -35.609375 L 11.21875 -35.609375 Z M 11.21875 -21.203125 "/></g></g></g><g fill="#2dc6bb" fill-opacity="1"><g transform="translate(130.240789, 241.410183)"><g><path d="M 3.125 -8.984375 L 3.125 -34.671875 C 3.125 -37.617188 3.890625 -39.851562 5.421875 -41.375 C 6.960938 -42.894531 9.1875 -43.65625 12.09375 -43.65625 L 19.078125 -43.65625 C 22.035156 -43.65625 24.269531 -42.894531 25.78125 -41.375 C 27.300781 -39.851562 28.0625 -37.617188 28.0625 -34.671875 L 28.0625 -8.984375 C 28.0625 -6.066406 27.300781 -3.835938 25.78125 -2.296875 C 24.269531 -0.765625 22.035156 0 19.078125 0 L 12.09375 0 C 9.1875 0 6.960938 -0.765625 5.421875 -2.296875 C 3.890625 -3.835938 3.125 -6.066406 3.125 -8.984375 Z M 13.71875 -8.046875 L 17.703125 -8.046875 C 19.367188 -8.046875 20.203125 -8.875 20.203125 -10.53125 L 20.203125 -33.109375 C 20.203125 -34.773438 19.367188 -35.609375 17.703125 -35.609375 L 13.71875 -35.609375 C 12.050781 -35.609375 11.21875 -34.773438 11.21875 -33.109375 L 11.21875 -10.53125 C 11.21875 -8.875 12.050781 -8.046875 13.71875 -8.046875 Z M 13.71875 -8.046875 "/></g></g></g><g fill="#2dc6bb" fill-opacity="1"><g transform="translate(159.35746, 241.410183)"><g><path d="M 22.890625 -43.65625 L 28.75 -43.65625 C 29.414062 -43.65625 29.75 -43.320312 29.75 -42.65625 L 29.75 -1 C 29.75 -0.332031 29.414062 0 28.75 0 L 23.828125 0 C 23.328125 0 22.953125 -0.269531 22.703125 -0.8125 L 10.96875 -24.625 L 10.96875 -1 C 10.96875 -0.332031 10.640625 0 9.984375 0 L 4.109375 0 C 3.453125 0 3.125 -0.332031 3.125 -1 L 3.125 -42.65625 C 3.125 -43.320312 3.453125 -43.65625 4.109375 -43.65625 L 9.046875 -43.65625 C 9.546875 -43.65625 9.921875 -43.382812 10.171875 -42.84375 L 21.890625 -19.015625 L 21.890625 -42.65625 C 21.890625 -43.320312 22.222656 -43.65625 22.890625 -43.65625 Z M 22.890625 -43.65625 "/></g></g></g><g fill="#2dc6bb" fill-opacity="1"><g transform="translate(190.163189, 241.410183)"><g/></g></g><g fill="#001737" fill-opacity="1"><g transform="translate(204.568656, 243.56359)"><g><path d="M 2.703125 -47.046875 L 24.34375 -47.046875 C 24.976562 -47.046875 25.296875 -46.734375 25.296875 -46.109375 L 25.296875 -40.234375 C 25.296875 -39.597656 24.976562 -39.28125 24.34375 -39.28125 L 17.53125 -39.28125 L 17.53125 -0.9375 C 17.53125 -0.3125 17.210938 0 16.578125 0 L 10.46875 0 C 9.84375 0 9.53125 -0.3125 9.53125 -0.9375 L 9.53125 -39.28125 L 2.703125 -39.28125 C 2.078125 -39.28125 1.765625 -39.597656 1.765625 -40.234375 L 1.765625 -46.109375 C 1.765625 -46.734375 2.078125 -47.046875 2.703125 -47.046875 Z M 2.703125 -47.046875 "/></g></g></g><g fill="#001737" fill-opacity="1"><g transform="translate(231.209804, 243.56359)"><g><path d="M 26.46875 -32.703125 L 26.46875 -20.875 C 26.46875 -17.46875 25.367188 -15.078125 23.171875 -13.703125 L 26.234375 -1.0625 C 26.429688 -0.351562 26.15625 0 25.40625 0 L 19.640625 0 C 19.085938 0 18.753906 -0.273438 18.640625 -0.828125 L 15.828125 -12.40625 L 10.59375 -12.40625 L 10.59375 -0.9375 C 10.59375 -0.3125 10.273438 0 9.640625 0 L 3.875 0 C 3.25 0 2.9375 -0.3125 2.9375 -0.9375 L 2.9375 -40.234375 C 2.9375 -40.859375 3.25 -41.171875 3.875 -41.171875 L 18 -41.171875 C 20.78125 -41.171875 22.882812 -40.453125 24.3125 -39.015625 C 25.75 -37.585938 26.46875 -35.484375 26.46875 -32.703125 Z M 10.59375 -20 L 16.46875 -20 C 18.03125 -20 18.8125 -20.78125 18.8125 -22.34375 L 18.8125 -31.234375 C 18.8125 -32.796875 18.03125 -33.578125 16.46875 -33.578125 L 10.59375 -33.578125 Z M 10.59375 -20 "/></g></g></g><g fill="#001737" fill-opacity="1"><g transform="translate(260.20337, 243.56359)"><g><path d="M 30.703125 0 L 25 0 C 24.488281 0 24.171875 -0.273438 24.046875 -0.828125 L 22.171875 -8.234375 L 11.109375 -8.234375 L 9.296875 -0.828125 C 9.171875 -0.273438 8.851562 0 8.34375 0 L 2.59375 0 C 1.882812 0 1.628906 -0.332031 1.828125 -1 L 11.59375 -40.34375 C 11.707031 -40.894531 12.035156 -41.171875 12.578125 -41.171875 L 20.765625 -41.171875 C 21.304688 -41.171875 21.640625 -40.894531 21.765625 -40.34375 L 31.53125 -1 C 31.71875 -0.332031 31.441406 0 30.703125 0 Z M 20.34375 -15.0625 L 16.640625 -31.046875 L 12.9375 -15.0625 Z M 20.34375 -15.0625 "/></g></g></g><g fill="#001737" fill-opacity="1"><g transform="translate(293.137257, 243.56359)"><g><path d="M 22.53125 -41.171875 L 27.875 -41.171875 C 28.78125 -41.171875 29.132812 -40.738281 28.9375 -39.875 L 19.578125 -1.0625 C 19.421875 -0.351562 18.992188 0 18.296875 0 L 12.40625 0 C 11.738281 0 11.304688 -0.351562 11.109375 -1.0625 L 1.828125 -39.875 C 1.628906 -40.738281 1.976562 -41.171875 2.875 -41.171875 L 8.234375 -41.171875 C 8.941406 -41.171875 9.375 -40.816406 9.53125 -40.109375 L 15.34375 -13.53125 L 21.234375 -40.109375 C 21.429688 -40.816406 21.863281 -41.171875 22.53125 -41.171875 Z M 22.53125 -41.171875 "/></g></g></g><g fill="#001737" fill-opacity="1"><g transform="translate(323.483469, 243.56359)"><g><path d="M 26.40625 -40.234375 L 26.40625 -34.34375 C 26.40625 -33.675781 26.09375 -33.34375 25.46875 -33.34375 L 10.9375 -33.34375 L 10.9375 -24.296875 L 22 -24.296875 C 22.625 -24.296875 22.9375 -23.960938 22.9375 -23.296875 L 22.9375 -17.46875 C 22.9375 -16.800781 22.625 -16.46875 22 -16.46875 L 10.9375 -16.46875 L 10.9375 -7.765625 L 25.46875 -7.765625 C 26.09375 -7.765625 26.40625 -7.453125 26.40625 -6.828125 L 26.40625 -0.9375 C 26.40625 -0.3125 26.09375 0 25.46875 0 L 3.828125 0 C 3.234375 0 2.9375 -0.3125 2.9375 -0.9375 L 2.9375 -40.234375 C 2.9375 -40.859375 3.234375 -41.171875 3.828125 -41.171875 L 25.46875 -41.171875 C 26.09375 -41.171875 26.40625 -40.859375 26.40625 -40.234375 Z M 26.40625 -40.234375 "/></g></g></g><g fill="#001737" fill-opacity="1"><g transform="translate(352.418234, 243.56359)"><g><path d="M 10.9375 -7.765625 L 10.9375 -40.234375 C 10.9375 -40.859375 10.625 -41.171875 10 -41.171875 L 3.875 -41.171875 C 3.25 -41.171875 2.9375 -40.859375 2.9375 -40.234375 L 2.9375 -0.9375 C 2.9375 -0.3125 3.25 0 3.875 0 L 22.578125 0 C 23.210938 0 23.53125 -0.3125 23.53125 -0.9375 L 23.53125 -6.828125 C 23.53125 -7.453125 23.210938 -7.765625 22.578125 -7.765625 Z M 10.9375 -7.765625 "/></g></g></g><g clip-path="url(#93994b6eba)"><g clip-path="url(#611748d11d)"><g clip-path="url(#fc58333e7d)"><path fill="#001737" d="M 40.648438 211.210938 C 40.316406 206.871094 39.875 202.730469 39.304688 198.707031 C 38.640625 194.023438 37.960938 190.097656 39.890625 185.695312 C 42.179688 180.472656 46.617188 178.066406 49.914062 176.003906 C 55.789062 172.328125 60.910156 168.035156 62.925781 165.332031 C 70.101562 155.722656 71.234375 139.894531 63.636719 127.207031 C 55.730469 114.003906 40.8125 109.210938 29.644531 110.101562 C 13.21875 111.410156 2.769531 126.296875 2.320312 125.863281 C 1.933594 125.492188 8.707031 114.265625 21.847656 109.964844 C 38.050781 104.664062 57.644531 111.964844 67.496094 126.191406 C 71.933594 132.605469 74.355469 140.371094 74.398438 148.226562 C 74.4375 156.078125 72.164062 165.113281 66.226562 172.351562 C 63.765625 175.347656 60.476562 178.230469 56.15625 180.746094 C 54.597656 181.652344 48.128906 183.660156 45.136719 187.011719 C 41.320312 191.285156 41.035156 197.648438 40.742188 207.960938 C 40.710938 209.023438 40.679688 210.128906 40.648438 211.210938 Z M 40.648438 211.210938 " fill-opacity="1" fill-rule="evenodd"/></g></g></g><g clip-path="url(#53eb508460)"><g clip-path="url(#e55cc7740b)"><g clip-path="url(#b0204a24e4)"><path fill="#0b3444" d="M 35.386719 135.632812 C 35.664062 135.0625 32.359375 131.859375 28.988281 132.414062 C 25.292969 133.019531 22.960938 137.898438 22.851562 141.738281 C 22.636719 149.019531 30.382812 154.84375 30.90625 154.414062 C 30.992188 154.347656 30.773438 153.898438 30.425781 153.136719 C 28.527344 148.964844 26.136719 146.277344 25.925781 142.917969 C 25.757812 140.269531 26.671875 136.996094 28.894531 135.664062 C 31.539062 134.082031 35.117188 136.179688 35.386719 135.632812 Z M 35.386719 135.632812 " fill-opacity="1" fill-rule="evenodd"/></g></g></g><g clip-path="url(#02f4c24a20)"><g clip-path="url(#16f210cdb0)"><g clip-path="url(#190e77f5b9)"><path fill="#2dc6bb" d="M 30.09375 244.078125 C 21.238281 208.777344 1.726562 131.015625 1.5 130.007812 C 1.472656 129.886719 1.355469 129.308594 1.296875 128.933594 C 1.265625 128.710938 1.222656 128.359375 1.214844 128.289062 C 1.039062 126.558594 7.839844 114.007812 23.027344 109.921875 C 35.113281 106.667969 50.199219 109.578125 60.4375 120.183594 C 73.832031 134.058594 74.007812 156.386719 64.878906 168.503906 C 60.761719 173.964844 54.484375 177.679688 50.789062 179.429688 C 48.589844 180.472656 45.660156 181.613281 43.199219 184.699219 C 38.527344 190.5625 39.578125 198.515625 39.941406 201.492188 C 41.234375 212.039062 41.015625 216.402344 41.160156 216.382812 C 41.519531 216.328125 34.675781 170.585938 33.746094 163.847656 C 35.496094 164.210938 37.011719 164.949219 38.554688 165.464844 C 40.394531 166.078125 42.167969 166.601562 42.9375 166.527344 C 43.355469 166.484375 43.777344 166.566406 44.011719 166.269531 C 44.109375 166.140625 44.175781 165.992188 44.210938 165.828125 C 44.140625 163.953125 44.042969 161.433594 43.972656 159.558594 C 43.902344 159.191406 43.746094 158.679688 43.496094 158.496094 C 42.878906 158.035156 41.871094 158.449219 41.550781 158.570312 C 39.859375 159.21875 36.429688 159.894531 33.394531 160.394531 C 36.054688 158.289062 38.164062 155.742188 39.601562 152.800781 C 43.109375 145.597656 43.609375 133.972656 36.765625 129.527344 C 33.394531 127.339844 28.5625 127.101562 25.058594 129.109375 C 17.996094 133.15625 17.726562 145.527344 22.082031 153.25 C 23.765625 156.234375 26.234375 158.683594 29.289062 160.550781 C 26.347656 160.363281 22.6875 160.0625 21.027344 159.570312 C 20.734375 159.484375 19.824219 159.1875 19.296875 159.636719 C 19.023438 159.867188 18.90625 160.257812 18.90625 160.730469 C 18.988281 162.894531 19.070312 165.054688 19.152344 167.214844 C 19.21875 167.582031 19.367188 167.882812 19.617188 168.066406 C 20.058594 168.378906 20.703125 168.246094 21.347656 168 C 22.90625 167.40625 27.03125 165.347656 29.636719 164.003906 C 29.789062 190.695312 29.941406 217.386719 30.09375 244.078125 Z M 30.09375 244.078125 " fill-opacity="1" fill-rule="evenodd"/></g></g></g></svg>